<svg xmlns="http://www.w3.org/2000/svg" width="1080" height="1920" viewBox="0 0 1080 1920">
<defs><linearGradient id="bg" x2="0" y2="1"><stop stop-color="#071523"/><stop offset="1" stop-color="#162334"/></linearGradient><filter id="glow"><feGaussianBlur stdDeviation="12" result="b"/><feMerge><feMergeNode in="b"/><feMergeNode in="SourceGraphic"/></feMerge></filter></defs>
<rect width="1080" height="1920" fill="url(#bg)"/><text x="540" y="150" fill="#f5fbff" font-family="Arial,sans-serif" font-size="66" font-weight="700" text-anchor="middle">TÉCNICA PRIMERO</text>
<line x1="110" y1="950" x2="970" y2="950" stroke="#263d50" stroke-width="18" stroke-linecap="round"/>
<g stroke="#d7edf4" stroke-width="54" stroke-linecap="round" stroke-linejoin="round" fill="none"><path d="M245 725 L470 650 L760 710"/><path d="M470 650 L390 930"/><path d="M760 710 L900 930"/></g><circle cx="175" cy="742" r="74" fill="#d7edf4"/>
<line x1="175" y1="742" x2="760" y2="710" stroke="#55f0ce" stroke-width="14" stroke-linecap="round" filter="url(#glow)"/><g fill="#55f0ce"><circle cx="175" cy="742" r="20"/><circle cx="470" cy="726" r="20"/><circle cx="760" cy="710" r="20"/></g>
<text x="540" y="1080" fill="#55f0ce" font-family="Arial,sans-serif" font-size="43" font-weight="700" text-anchor="middle">CABEZA · TRONCO · CADERA</text>
<g font-family="Arial,sans-serif"><rect x="90" y="1200" width="900" height="185" rx="42" fill="#123b35" stroke="#55f0ce" stroke-width="5"/><circle cx="180" cy="1292" r="45" fill="#55f0ce"/><path d="M158 1290 l16 18 32 -39" fill="none" stroke="#073326" stroke-width="13" stroke-linecap="round"/><text x="260" y="1285" fill="#f5fbff" font-size="45" font-weight="700">CONTINÚA</text><text x="260" y="1345" fill="#b9ddd5" font-size="35">si conservas control y postura</text>
<rect x="90" y="1435" width="900" height="260" rx="42" fill="#491d2a" stroke="#ff668a" stroke-width="5"/><circle cx="180" cy="1530" r="45" fill="#ff668a"/><path d="M160 1510 l40 40 M200 1510 l-40 40" stroke="#491d2a" stroke-width="13" stroke-linecap="round"/><text x="260" y="1515" fill="#f5fbff" font-size="45" font-weight="700">DETENTE</text><text x="260" y="1575" fill="#ffd0dc" font-size="33">ante dolor, mareo o náusea</text><text x="260" y="1625" fill="#ffd0dc" font-size="33">o si pierdes la posición</text></g>
</svg>